PathFileType	4	(X/Y/Z)	10_2_73_p0_0-418.trc
DataRate	CameraRate	NumFrames	NumMarkers	Units	OrigDataRate	OrigDataStartFrame	OrigNumFrames
60.0	60.0	5	27	m	60.0	157	419
Frame#	Time	RHip			RKnee			RAnkle			RBigToe			RSmallToe			RHeel			LHip			LKnee			LAnkle			LBigToe			LSmallToe			LHeel			Neck			Head			Nose			RShoulder			RElbow			RWrist			RThumb			RIndex			RPinky			LShoulder			LElbow			LWrist			LThumb			LIndex			LPinky			
		X1	Y1	Z1	X2	Y2	Z2	X3	Y3	Z3	X4	Y4	Z4	X5	Y5	Z5	X6	Y6	Z6	X7	Y7	Z7	X8	Y8	Z8	X9	Y9	Z9	X10	Y10	Z10	X11	Y11	Z11	X12	Y12	Z12	X13	Y13	Z13	X14	Y14	Z14	X15	Y15	Z15	X16	Y16	Z16	X17	Y17	Z17	X18	Y18	Z18	X19	Y19	Z19	X20	Y20	Z20	X21	Y21	Z21	X22	Y22	Z22	X23	Y23	Z23	X24	Y24	Z24	X25	Y25	Z25	X26	Y26	Z26	X27	Y27	Z27	
157	2.6166666666666667	0.3066317302698022	0.5358302070392524	0.9208493031964439	0.3113049906352041	0.6666663528294346	1.381175778159869	0.298734577823801	0.8114716836785536	1.804292785406586	0.2758558335092814	0.5926495425113935	1.841186530012849	0.32528679121884885	0.6451769044906471	1.8479346359545235	0.27123341876183077	0.8935599728226026	1.865140050023885	0.07354792518893481	0.51727766214229	0.9239615484832039	0.0826653433350541	0.6475305845600493	1.3697876417245964	0.08399542024998152	0.7810423293481673	1.8067853579397868	0.12373364535379178	0.6002475200724269	1.8609954374945257	0.06297930308830832	0.6255749089565181	1.840657081018534	0.09162458880015983	0.881225248987487	1.8593964501892344	0.19166296845789718	0.40309647652735386	0.3372823170212877	0.21261401673604846	0.2887145278142915	0.1042610052771228	0.21726382447079648	0.24237903961172466	0.23883923045269476	0.36783349785350716	0.44747029974880725	0.431310702170865	0.4040023936312926	0.5243748589018109	0.7158658873399231	0.41788598912810165	0.5451646414321976	0.9736160475953322	0.3639009132362442	0.48243613430018606	1.0808668652056377	0.38661623622198654	0.512089127745789	1.1318650921369136	0.4176413174451999	0.5841295537342109	1.126227592895717	0.04161541712902021	0.4189268554473176	0.4241623138205354	-0.02492643330619044	0.4807657358727036	0.7226261112458384	-0.018418178055940027	0.48055930462900237	0.9778065561579341	0.037323700689237356	0.46379656379130585	1.0932162774180347	0.014428729312219165	0.4471573193599259	1.105646745995181	-0.034974899865197924	0.5234324690019753	1.114584170158392
158	2.6333333333333333	0.30758463311492557	0.5373141866997329	0.9212867593342472	0.311348705614066	0.6665336101613161	1.3813101100323062	0.2988138673844955	0.8112710730961676	1.804450287542828	0.27286580871884175	0.578865841701531	1.8364105283298275	0.32525193114952167	0.64479817808029	1.8478816803544982	0.27236775440261274	0.8968656337024108	1.871359217291562	0.07355039202902713	0.5172812079814842	0.9240047788573069	0.08312766775119936	0.6466657438379554	1.3736046671076967	0.08398953243578591	0.7810701477334638	1.8069123077463862	0.12371593185424451	0.6002425900214362	1.8611025791311548	0.06171504852478094	0.6269853177394441	1.8454926710361825	0.09165285347295828	0.880894282437998	1.859337831262848	0.19160007244591906	0.40311103999549724	0.3373193645316711	0.21266930814736293	0.2886792774706587	0.10426714390162879	0.21951931736334235	0.2531381240840709	0.23713175595904518	0.3678281376843083	0.44740875505675126	0.4313586392586233	0.40398858041961927	0.524386295364304	0.7158329096525021	0.41789879021252213	0.545026568354225	0.9736063301867146	0.3677521714929616	0.4839281189305754	1.0808676154423589	0.3865237850808844	0.5121305161210506	1.1317919376922558	0.4206703192508603	0.5960225832298967	1.1278237959115576	0.04167070317826327	0.42107495261799766	0.42784606131920383	-0.024948681225683333	0.4806086147983496	0.7226152607742119	-0.02424458669202464	0.4934758453237051	0.9794559128511221	0.03738933088047181	0.4638664757863958	1.0932689177256798	0.009001956266184077	0.45954888261838583	1.1078370338974082	-0.029707252974707936	0.5388038632323097	1.116582711458785
159	2.65	0.30757693211237025	0.5373653067404222	0.9212752619761045	0.31133408856598216	0.6664435153619868	1.381305548754478	0.2988128638712945	0.8111381127109754	1.804468100673357	0.27557820305254455	0.5924574814486016	1.8407281365334893	0.32466986075927734	0.6445215293707004	1.8472437062815132	0.26849437530665937	0.8949825059321417	1.8709313977653	0.07354515417392377	0.5173510128662893	0.9240062050268953	0.08263556172472403	0.6476828456909506	1.3699535847846236	0.08402265096886169	0.780972627004062	1.8069374496500394	0.12387786536865365	0.6004151455072699	1.8610754787168975	0.06230336391867755	0.625654718064645	1.8493264188257807	0.0916044684016057	0.8805046736789659	1.8591935182433577	0.19185863183250787	0.4030380079997594	0.3410679812842084	0.21270474013860208	0.2885771796257294	0.10430336776513464	0.21963398333199183	0.2529638288555368	0.23723555777622868	0.36783791085311823	0.4475395208468369	0.43136564535283034	0.4039933390318066	0.5243732826627603	0.7158892402942243	0.4178678298419791	0.5451482264305647	0.9737023594980646	0.36454420368198986	0.48467273892211854	1.085184768480157	0.38648638692902487	0.5118756157559932	1.1317798372790762	0.4210136602949515	0.5951436184089907	1.1318890089960396	0.041586079373465486	0.41909379131213825	0.4241334535031643	-0.024926311048991474	0.4807488317603939	0.7225897044852828	-0.024279460826962442	0.4935023234687752	0.9794690584078283	0.03733007261351952	0.4637947999137235	1.093209509949134	0.008976502219312158	0.45953362505517287	1.1078580882921405	-0.03360693609882106	0.5356505996400054	1.1163384883606078
160	2.6666666666666665	0.3076044264878895	0.5373716827026468	0.921348422522547	0.31136327337815445	0.6664322436992526	1.3813059373903431	0.29880854304703264	0.8113156879204637	1.8043956541398083	0.27556342429835373	0.5925685975074725	1.8405806236213973	0.32450430865992835	0.6446918906098406	1.8469749009155132	0.26843675605381967	0.889989298034459	1.859733821613551	0.07910417490170249	0.504127065196767	0.9226516397430908	0.08267894944720258	0.6475473490913389	1.3697489498559436	0.08400713338020113	0.7808644160666592	1.8068746555018662	0.12381760188591143	0.6001093841872903	1.8610485099096785	0.0623620947365016	0.6253511281727041	1.8491609716406874	0.09167417593261985	0.8805640062722057	1.8592578175245382	0.19188723870474889	0.40314010467844147	0.3411297436082518	0.21654162749681055	0.2905457483652958	0.10383871315340233	0.21963295851708659	0.25305236449052143	0.23729258964734745	0.36783535930428857	0.447416669455491	0.43139212941542326	0.40396176759262575	0.5243922828386735	0.7158747938169778	0.4178281238714271	0.5453597270353228	0.9736753723936946	0.36381179731327923	0.4825545731367919	1.081103921726953	0.3863321159872442	0.5124680514988251	1.1318155967322414	0.42065163857525945	0.5961154026448049	1.1278722172141373	0.04156856927332731	0.4190156859598192	0.4241508611828713	-0.024944425695491487	0.4806136732465964	0.7225499349437002	-0.02457699940706677	0.4909155044671939	0.9749827780440471	0.03689396430706882	0.4612806466719657	1.0889786881102574	0.009041268600563875	0.45930196316620014	1.107695365381146	-0.03394963790557465	0.5330650289410283	1.1125123973681603
161	2.683333333333333	0.3076721699009872	0.5374434504019235	0.9214122907306213	0.311594925462986	0.6664185847525187	1.3815040177260258	0.2987581537904911	0.8113896460369671	1.8042532554425574	0.2756425924053753	0.5922872285632701	1.8406629571520876	0.3247502525968807	0.6445276730972396	1.847215282984692	0.26847856664525716	0.8901989503939539	1.8594789856392078	0.07953427891599157	0.5064560063641036	0.9268946811024434	0.08317555845004636	0.6465227835418388	1.373695642867956	0.08316881789755777	0.77779939836729	1.8015537227691885	0.12371832568194435	0.6002649962381627	1.861165918972084	0.0634188089759458	0.6247110029423983	1.8448872176861224	0.08836314968570329	0.8758875607935531	1.8614172082810057	0.19197210507846962	0.40327015307282155	0.34111593419211766	0.21653754934447797	0.29047126488611663	0.10391036190381255	0.21964425782790184	0.25309939903275186	0.23728602861566733	0.3678193927664205	0.44751958177864737	0.4313207590079529	0.40398964139873866	0.5245158152495298	0.7158526571573681	0.4179228427680745	0.5449886457616903	0.9736414659826126	0.3645467972226488	0.4843870452204492	1.0856527606635513	0.3866011758770138	0.5116753206200046	1.132000708471657	0.4210604282773343	0.5949992043325312	1.1320342337538254	0.04169244698099685	0.4188077009953065	0.42410345637701463	-0.024953351292642728	0.480864799935063	0.7225898893041323	-0.024114384882387783	0.4901287948037829	0.9790158694227914	0.03692085883220126	0.46167120158888414	1.0892221746904251	0.008891763782954216	0.4592299372200273	1.1076773791702201	-0.03401703825314093	0.5330826424510159	1.1126092457714263
